<?xml version="1.0" encoding="utf-8"?>
<!-- Generator: Adobe Illustrator 21.0.2, SVG Export Plug-In . SVG Version: 6.00 Build 0)  -->
<svg version="1.1" xmlns="http://www.w3.org/2000/svg" xmlns:xlink="http://www.w3.org/1999/xlink" x="0px" y="0px"
	 viewBox="0 0 1920 1024" style="enable-background:new 0 0 1920 1024;" xml:space="preserve">
<style type="text/css">
	.st0{fill:url(#SVGID_1_);}
	.st1{fill:#FFCF00;}
	.st2{fill:#FFD400;}
	.st3{fill:url(#Honey_1_);}
	.st4{fill:#FFFFFF;}
	.st5{fill:none;stroke:#FFFFFF;stroke-miterlimit:10;}
	.st6{fill:#1E1F1E;}
	.st7{clip-path:url(#SVGID_3_);fill:#FFCC00;}
	.st8{fill:#ECECEC;}
	.st9{clip-path:url(#SVGID_5_);fill:#FFCC00;}
	.st10{clip-path:url(#SVGID_7_);fill:#FFCC00;}
	.st11{fill:#FFEB00;}
	.st12{display:none;fill:#FFFFFF;}
</style>
<g id="sky">
	<linearGradient id="SVGID_1_" gradientUnits="userSpaceOnUse" x1="946.733" y1="-93.3849" x2="962.2828" y2="948.4512">
		<stop  offset="0" style="stop-color:#0057FF"/>
		<stop  offset="0.9968" style="stop-color:#FFFFFF"/>
	</linearGradient>
	<rect x="-52" y="-16" class="st0" width="2016" height="1087"/>
</g>
<g id="text">
	<g id="Hello">
		<path id="H" class="st1" d="M892.4,428.3c1.2-11.5-15.7-11.7-17.6-0.8c-0.9,5.4-1.8,10.9-2.4,16.4c-4.3-0.4-8.8,0.1-13.1,0
			c-2,0-3.9-0.1-5.9-0.2c0.2-5.5,0.6-11.1,1.2-16.7c1.2-11.5-15.8-11.7-17.6-0.8c-3.2,18.6-5.2,38.3-3.7,57.3
			c1,12.5,20.3,14.1,20,0.9c-0.2-7.3-0.2-14.6-0.2-21.8c5.9,0.8,12,1.2,17.6,0.6c-0.3,6.9-0.3,13.8,0.2,20.7
			c0.8,12.6,20.3,14,20,0.9C890.5,465.8,890.4,447.1,892.4,428.3z"/>
		<path id="E" class="st1" d="M932.2,473.7c-3,0.2-6.1,0.5-9.1,0.9c0-2.2,0-4.4,0-6.6c1.3,0.1,2.5,0.2,3.9,0.1
			c3.9-0.3,6.9-1,10.6-2.4c4.6-1.7,6.1-8,4.6-12.1c-1.6-4.3-6.6-7.6-11.3-6.2c-0.8,0.2-1.7,0.5-2.5,0.7c-0.6,0.1-1.1,0.3-1.7,0.3
			c-0.1,0-0.1,0-0.2,0c-0.4,0-1.7,0-1.9,0c-0.7,0-1.4-0.1-2.1-0.2c-0.1-2.1-0.2-4.3-0.3-6.4c4.9-0.3,9.7-0.7,14.5-1.5
			c10.9-1.7,9.5-20.4-1.7-19.6c-8,0.5-15.9,1.8-23.8,3.2c-5.4,1-7.5,6.2-6.8,10.8c0,0.2-0.1,0.4-0.1,0.6c0.1,15.1-0.5,30.2-0.5,45.3
			c0,1.2,0.2,2.3,0.6,3.3c-0.8,5.2,2.1,11.2,8.4,10.9c7.1-0.3,14.4-0.5,21.4-1.7c4.8-0.8,8.1-5.9,7.6-10.6
			C941.1,478.3,937.2,473.4,932.2,473.7z"/>
		<path id="L" class="st1" d="M980.2,475.8c-2.2,0.4-4.4,0.5-6.7,0.5c0.2-15.5,1-31.1-1-46.3c-1.4-10.3-16.7-8-17.6,1.6
			c-1.6,17.9-2.2,36.2-2.6,54.1c-0.1,5.8,4.2,10.6,10.1,11c7.5,0.5,15,1,22.4-0.5C997.9,493.4,993.4,473.2,980.2,475.8z"/>
		<path id="L_1_" class="st2" d="M1025.7,475.8c-2.2,0.4-4.4,0.5-6.7,0.5c0.2-15.5,1-31.1-1-46.3c-1.4-10.3-16.7-8-17.6,1.6
			c-1.6,17.9-2.2,36.2-2.6,54.1c-0.1,5.8,4.2,10.6,10.1,11c7.5,0.5,15,1,22.4-0.5C1043.5,493.4,1038.9,473.2,1025.7,475.8z"/>
		<path id="_x30_" class="st1" d="M1104.9,438.1c-9-17.3-29.3-20.1-45.7-11.9c-2.3,1.1-3.7,2.7-4.6,4.3c0,0-0.1,0-0.1,0.1
			c-38.1,22.8,4.5,91.5,40.6,59.9C1109.1,478.2,1113.5,454.6,1104.9,438.1z M1083.7,470.7c-6,9.4-14.1,6.7-18.9-1.9
			c-4.3-7.7-5.4-16.3,1.9-22.4c0.1-0.1,0.2-0.2,0.3-0.4c0.2,0,0.3,0,0.5,0c5.5-1,12.5-4.5,16.9,0.5
			C1089.9,452.7,1087.6,464.4,1083.7,470.7z"/>
	</g>
	<g id="Script">
		<linearGradient id="Honey_1_" gradientUnits="userSpaceOnUse" x1="996.0217" y1="395.2045" x2="972.767" y2="835.8203">
			<stop  offset="7.058323e-03" style="stop-color:#FFDF00"/>
			<stop  offset="0.9968" style="stop-color:#FF8900"/>
		</linearGradient>
		<path id="Honey" class="st3" d="M1498.5,377.4c-9.6-19-38.1-2.3-28.5,16.7c19.4,38.6,29.7,83.7,17.2,126.2
			c-12.2,41.2-45.2,66.1-84.6,79.6c-35.9,12.3-74.1,18.5-110.8,27.5c-5.7-34.1-12.3-68.1-19.5-101.9c-2.9-13.7-23.8-16.4-30.2-3.9
			c-13.2,25.7-25.2,52.5-39.2,77.8c-7.1,12.9-20.8,22.9-28.6,3.2c-5.1-12.9,1.7-29.3,5.6-41.6c6.6-20.7-24.1-28-31.9-8.8
			c-8.1,20-18,41.1-33.4,56.6c-9.3,9.4-24.1,16.4-36.9,13.7c12.6-14.1,21.5-32.6,26.1-49.7c5.9-21.9,3.6-54.1-24.6-57.4
			c-22.2-2.6-38.5,15.6-46.8,34c-8.9,19.7-11.3,43.7-5.1,64.1c-2.6-0.4-5-1.6-7-3.9c-5.1-5.9-1.5-19.3-1.7-26.4
			c-0.7-20.7-10.7-37.8-31.7-43.2c-14.2-3.7-29.4-1-41.9,6.2c0.2-4.3,0.3-8.6,0.5-13c0.5-13.7-18.9-22.7-28.2-11.7
			c-8.8,10.4-19.2,22.8-31.1,32.7c-7.2-12.6-19-22.4-35.5-26.2c-11.3-2.6-24-1.6-34.4,3.6c-1.7,0.6-3.4,1.5-5,2.9
			c-4.2,2.8-7.8,6.4-10.7,10.8c-1.3,2-2.3,4-3.1,6c-4.6,6.7-8.7,13.9-12,21.5c-15.1,1.8-30.3,3.7-45.4,5.7
			c3.6-55.4,7.7-110.7,11.4-166c1.1-17.2-24.8-16.7-26.5,0c-5.7,56.5-10.2,113.2-14.5,169.9c-30.8,4.2-61.6,8.6-92.4,13.3
			c-1-51.4-4.1-102.8-8.1-153.5c-1.4-17.7-29-17.9-27.8,0c3.6,53,4.6,105.6,4.2,158.3c-42.3,6.5-84.6,13.3-126.9,20.1
			c-16.9,2.7-9.6,28,7,25.6c39.8-5.9,79.7-11.4,119.5-16.8c-0.7,45.2-2.2,90.4-3.8,135.9c-0.7,19.7,28.4,19,30.2,0
			c4.4-46.3,6.1-93.2,5.9-140.2c29.9-4,59.8-7.9,89.7-11.9c-4.9,62.4-12.3,126.1-11.8,188.6c0.2,20.1,28.3,19,30.5,0
			c7.3-63.6,7.4-128.7,11.3-192.6c13-1.7,25.9-3.5,38.9-5.3c-1.8,18,2.5,35.8,16.5,50c30.7,31.1,76.3-2.6,92.4-32.8
			c5.5-10.3,8.3-21.9,8.5-33.2c5.7-3.8,11.1-8,16.4-12.5c-0.7,17.3-1.3,34.7-2,52c-0.8,21.6,31,20.8,33,0
			c1.7-17.6,7.2-65.3,36.6-55.3c9.5,3.2,7.1,13,6.9,21.5c-0.2,11,0,22.4,5.9,32.1c11.2,18.5,35.5,23.3,55.6,17.6
			c5.8,4.7,12.9,8.4,21.2,10.7c33.9,9.3,59.7-7.7,79-32.3c9,16.1,25.7,27.5,44.7,25.9c20.5-1.7,33.8-18.9,42.2-36
			c5.3-10.7,10.6-21.3,16-32c3.8,18.9,7.3,37.8,10.5,56.8c-34.7,11.2-66.9,27.7-93.2,57.9c-52.7,60.6-69,151.3-35.4,225
			c16.4,36.1,48.4,73.3,92.3,64.8c44.4-8.6,71.3-54.3,80.4-95.2c12.4-55.9,5.6-117.3-0.4-173.6c-2-18.9-4.5-37.8-7.2-56.6
			c59.8-14.9,124.2-17.8,174.1-57.4C1540.2,545.9,1535,449.8,1498.5,377.4z M841.9,559.7c6.8,1.1,12,4.8,15.3,9.9
			c-2.7,0.6-5.5,1.1-8.4,1.3c-3.3,0.2-19-0.2-20.2-5c-0.1-0.5-0.2-1-0.2-1.5c1.2-1.4,2.4-2.8,3.7-4.2
			C835.3,559.1,839.7,559.3,841.9,559.7z M851.8,612.7c-5.7,7.2-18.9,21.8-29.5,20.3c-15.2-2.1-13.2-27.1-10.5-37.2
			c0.1-0.5,0.3-0.9,0.4-1.3c0,0,0,0,0.1,0c15.1,9.6,30.5,11.6,45.4,8.9C856,606.7,854,609.8,851.8,612.7z M1063.4,560.7
			c2.1-4.1,4.6-8.8,8.7-11.4c0.6-0.1,1.1-0.2,1.6-0.3c0.4,3.1,0.3,6.2-0.3,9.3c-1.8,12.9-9,27-16.9,37.6
			C1055,583.9,1058.4,570.5,1063.4,560.7z M1277.2,837.5c-1.1,38.7-11.3,101.4-56.4,113.3c-42,11.1-65-52.1-70.9-83.1
			c-14.7-77.5,26.3-159.9,98.1-192.8c5.7-2.6,11.6-4.9,17.5-7.1C1273.8,724.1,1278.8,780.9,1277.2,837.5z"/>
		<g id="Shine">
			<g>
				<g>
					<path class="st4" d="M969,550.1c11.6-3.2,23.9,2.9,29.3,13.4c0.8,1.6,5.2,0.5,4.3-1.3c-6.6-12.7-21.7-18.3-35.2-14.5
						C964.5,548.4,966.7,550.7,969,550.1L969,550.1z"/>
				</g>
			</g>
			<g>
				<g>
					<path class="st4" d="M1063.5,524.4c10.3-5.8,22.9-2.8,28.4,8c1,2,5.4,2.1,4.1-0.5c-6.6-13-22-18.4-34.9-11.1
						C1058.7,522.2,1061.6,525.5,1063.5,524.4L1063.5,524.4z"/>
				</g>
			</g>
			<g>
				<g>
					<path class="st4" d="M1162.2,547.5c3.2-0.5,6.3,2.7,7.4,5.5c0.5,1.3,4.8,0.6,4.6,0.1c-2.2-5.7-8.5-7.8-14.3-6.8
						c-0.8,0.1-1.3,0.3-0.8,1C1159.5,547.7,1161.6,547.6,1162.2,547.5L1162.2,547.5z"/>
				</g>
			</g>
			<g>
				<g>
					<path class="st4" d="M846,534.7c10.8,1.8,20.3,7.3,27,16c0.6,0.8,4.5-1.6,4-2.2c-6.8-8.8-16.3-14.5-27.3-16.2
						C848.5,532.2,845.8,534.7,846,534.7L846,534.7z"/>
				</g>
			</g>
			<g>
				<g>
					<path class="st4" d="M929.7,525.2c3-0.5,5.9,0.6,7.6,3.2c0.5,0.7,1.8,1.5,2.6,0.9c0.9-0.7,0.2-2-0.2-2.7
						c-2.7-4-7.4-6.1-12.1-5.3C925.5,521.6,927.8,525.5,929.7,525.2L929.7,525.2z"/>
				</g>
			</g>
			<g>
				<g>
					<path class="st4" d="M591.6,436.7c3-0.4,6,0.9,8.1,3c0.8,0.8,4.4-1.5,4.3-1.7c-2.6-2.7-6-3.7-9.7-3.2c-1,0.1-2.2,0.6-3,1.2
						C590.7,436.5,590.7,436.8,591.6,436.7L591.6,436.7z"/>
				</g>
			</g>
			<g>
				<g>
					<path class="st4" d="M739.6,406.8c1.5,0.1,2.8,1.5,3.3,2.8c0.4,0.9,1.7,1.3,2.6,1.3c0.5,0,2.2-0.2,1.8-1.1
						c-1.5-3.4-5-5.2-8.6-5.4c-0.7,0-2,0.1-1.8,1.1C737.1,406.5,738.8,406.8,739.6,406.8L739.6,406.8z"/>
				</g>
			</g>
			<g>
				<g>
					<path class="st4" d="M1255.8,524.2c4-0.9,8.4,0.8,9.8,4.9c0.8,2.4,4.3,2.3,3.3-0.6c-2.1-5.9-8.4-10-14.7-8.5
						C1251.9,520.5,1253.8,524.6,1255.8,524.2L1255.8,524.2z"/>
				</g>
			</g>
			<g>
				<g>
					<path class="st4" d="M476.6,625c0.4-0.1,0.9-0.1,1.3-0.2c1.7-0.5,3.6-3.8,0.7-3.9c-1,0-2.2,0.1-3.1,0.3
						c-1.8,0.4-3.5,3.7-0.7,3.9c0.4,0,0.9,0,1.3-0.1c2.2-0.1,4.1-4.1,1.3-3.9c-0.4,0-0.9,0.1-1.3,0.1c-0.2,1.3-0.5,2.6-0.7,3.9
						c0.6-0.1,1.4-0.2,2-0.2c0.2-1.3,0.5-2.6,0.7-3.9c-0.4,0.1-0.9,0.1-1.3,0.2C474.4,621.5,473.6,625.4,476.6,625L476.6,625z"/>
				</g>
			</g>
			<g>
				<g>
					<path class="st4" d="M459.8,629.6c0.1-0.7,2.8-1.8,3.6-2.2c1.5-0.6,3.2-1.2,4.9-1.1c2.5,0.2,4-3.6,1-3.8
						c-3-0.2-6.1,0.8-8.7,2.1c-2.3,1.2-4.9,2.8-5.2,5.6C455.1,632.8,459.6,631.8,459.8,629.6L459.8,629.6z"/>
				</g>
			</g>
		</g>
	</g>
</g>
<g id="line">
	<path class="st5" d="M-210.5,309.5c0,0,294-28,407,0s320,41,320,41s80.9-47.4,166.4-59.7s206.6,29.7,256.6,29.7s184-86,230-94
		s206,16,231,21s187,37,235,33s102-19,142-25s138,26.9,157.5,25.5"/>
</g>
<g id="line2">
</g>
<g id="line3">
</g>
<g id="bees">
	<g id="bee3">
		<path class="st6" d="M377.1,805.5c-4.8-2.2-10.3-1.5-14.5,1.4c-0.5-0.6-1.1-1.2-1.8-1.8c-0.7-0.5-1.4-1-2.1-1.4
			c2-4.7,1.4-10.2-1.8-14.5c-0.8-1.1-2.4-1.3-3.5-0.5c-1.1,0.8-1.3,2.4-0.5,3.5c2.2,3,2.5,6.9,0.9,10.2c-3.8-0.2-7.6,1.4-10.1,4.6
			c-3.5,4.4-3.5,10.6-0.2,14.9l-4,5c-8.1-4.6-18.6-2.8-24.6,4.7c-5.3,6.7-7,17.5-3.2,25l-3.9,10.5l9.9-4.2
			c8.5,4.6,21.3,0.5,27.4-7.2c6-7.5,5.5-18.2-0.8-25.1l4-5c5,2.2,11,0.9,14.5-3.5c2.5-3.2,3.2-7.2,2.2-10.9
			c2.8-2.3,6.7-2.9,10.1-1.4c0.7,0.3,1.4,0.3,2,0c0.6-0.2,1-0.7,1.3-1.3C379,807.5,378.4,806,377.1,805.5z"/>
		<g>
			<defs>
				<path id="SVGID_2_" d="M314.9,831.7c-6.7,8.3-7.6,23.4,0.8,30c8.3,6.7,22.8,2.4,29.4-5.9c6.7-8.3,5.3-20.5-3-27.2
					C333.7,822,321.5,823.4,314.9,831.7z"/>
			</defs>
			<clipPath id="SVGID_3_">
				<use xlink:href="#SVGID_2_"  style="overflow:visible;"/>
			</clipPath>
			
				<rect x="321.5" y="821.6" transform="matrix(0.6238 -0.7816 0.7816 0.6238 -536.782 574.6262)" class="st7" width="14.1" height="46.8"/>
		</g>
		<path class="st8" d="M380.1,850.7c-8.2-12.4-20-21.9-33.9-27.3c-8.3-12.3-20.2-21.8-34.1-27l0,0c-7.6,9.5-6,23.3,3.5,30.9
			c8.2,6.6,19.8,6.3,27.6-0.1c-4.5,9.1-2.3,20.4,6,27C358.7,861.7,372.6,860.2,380.1,850.7L380.1,850.7z"/>
	</g>
	<g id="bee2">
		<path class="st6" d="M157.3,727.9c-2.1-4.9-6.6-8.1-11.7-8.7c0-0.8,0-1.7-0.1-2.5c-0.1-0.8-0.4-1.7-0.6-2.4
			c4.6-2.2,7.9-6.6,8.4-11.9c0.1-1.4-0.9-2.6-2.3-2.7c-1.4-0.1-2.6,0.9-2.7,2.3c-0.4,3.7-2.8,6.8-6.2,8.1c-2.7-2.7-6.5-4.1-10.6-3.5
			c-5.6,0.9-9.7,5.5-10.2,10.9l-6.3,1c-2.9-8.9-11.9-14.6-21.4-13.1c-8.4,1.3-17,8.2-19.3,16.3l-10,5.1l10.1,3.6
			c3.1,9.2,15.4,14.7,25.1,13.2c9.5-1.5,16.3-9.7,16.3-19.1l6.3-1c2.2,5,7.5,8.1,13.1,7.2c4-0.6,7.3-3.2,9-6.5
			c3.6,0.2,6.9,2.4,8.4,5.8c0.3,0.7,0.8,1.1,1.5,1.4c0.6,0.2,1.2,0.2,1.8-0.1C157.3,730.6,157.9,729.2,157.3,727.9z"/>
		<g>
			<defs>
				<path id="SVGID_4_" d="M93.7,705.2c-10.6,1.7-21.4,12.1-19.7,22.7c1.7,10.5,15.2,17.2,25.7,15.5c10.5-1.7,17.7-11.6,16.1-22.1
					C114.1,710.8,104.2,703.6,93.7,705.2z"/>
			</defs>
			<clipPath id="SVGID_5_">
				<use xlink:href="#SVGID_4_"  style="overflow:visible;"/>
			</clipPath>
			
				<rect x="87.8" y="700.9" transform="matrix(0.9878 -0.1558 0.1558 0.9878 -111.6483 23.6111)" class="st9" width="14.1" height="46.8"/>
		</g>
		<path class="st8" d="M129,763.3c2.3-14.7,0-29.7-6.6-43c2.2-14.7-0.2-29.7-6.9-42.9l0,0c-12,1.9-20.2,13.2-18.3,25.2
			c1.6,10.4,10.4,18,20.5,18.5c-9.5,3.7-15.4,13.5-13.8,23.9C105.8,757,117,765.2,129,763.3L129,763.3z"/>
	</g>
	<g id="bee1">
		<path class="st6" d="M293.9,449.8c-3.6-3.9-8.9-5.4-13.9-4.3c-0.2-0.8-0.6-1.6-1-2.3c-0.4-0.8-0.9-1.4-1.4-2.1
			c3.6-3.6,5.2-8.9,3.9-14c-0.3-1.3-1.7-2.2-3-1.8c-1.3,0.3-2.1,1.7-1.8,3c0.9,3.6-0.3,7.4-3.1,9.7c-3.4-1.6-7.5-1.7-11.1,0.3
			c-5,2.7-7.3,8.4-6,13.7l-5.6,3.1c-5.7-7.4-16.1-9.8-24.5-5.1c-7.5,4.1-13.2,13.5-12.6,21.9L206,480h10.8c6,7.6,19.4,8.6,28.1,3.9
			c8.5-4.6,12.1-14.6,8.9-23.4l5.6-3.1c3.7,4,9.8,5.1,14.8,2.4c3.6-2,5.8-5.4,6.2-9.2c3.5-1,7.3-0.1,9.9,2.7
			c0.5,0.5,1.2,0.8,1.8,0.8c0.6,0,1.2-0.2,1.7-0.7C294.8,452.4,294.8,450.8,293.9,449.8z"/>
		<g>
			<defs>
				<path id="SVGID_6_" d="M226.3,450c-9.4,5.1-16,18.6-10.9,28c5.1,9.4,20.1,11.1,29.4,5.9c9.4-5.1,12.8-16.9,7.7-26.2
					C247.4,448.3,235.7,444.9,226.3,450z"/>
			</defs>
			<clipPath id="SVGID_7_">
				<use xlink:href="#SVGID_6_"  style="overflow:visible;"/>
			</clipPath>
			
				<rect x="226.7" y="444.1" transform="matrix(0.8772 -0.4802 0.4802 0.8772 -195.7748 169.7034)" class="st10" width="14.1" height="46.8"/>
		</g>
		<path class="st8" d="M279.2,492.7c-2.8-14.6-10-28-20.8-38.2c-2.9-14.6-10.2-27.9-21-38.1l0,0c-10.7,5.8-14.6,19.2-8.7,29.9
			c5.1,9.3,15.8,13.4,25.5,10.5c-7.7,6.6-9.9,17.9-4.9,27.2C255.1,494.6,268.5,498.5,279.2,492.7L279.2,492.7z"/>
	</g>
</g>
<g id="sun">
	<circle class="st11" cx="239" cy="183" r="168"/>
</g>
<g id="clouds">
	<path id="cloud4" class="st12" d="M1738.9,117.9c-24.7-24.4-60.5-30.7-91-19c-4-13.3-11.2-25.7-21.7-36.2
		c-33.6-33.2-87.7-33-120.9,0.6c-3.7,3.7-7,7.7-9.8,11.9c-32.4-16.9-73.3-11.7-100.4,15.6c-33.2,33.6-33,87.7,0.6,120.9
		c18.6,18.5,43.6,26.6,67.8,24.4c4.2,10.8,10.7,20.8,19.4,29.5c31.7,31.4,81.8,32.9,115.3,4.6c3.4,7.3,8.1,14.1,14.1,20.1
		c27.1,26.8,70.8,26.6,97.6-0.5c11.8-11.9,18.4-27,19.7-42.5c3.4-2.6,6.7-5.4,9.9-8.6C1772.7,205.3,1772.5,151.2,1738.9,117.9z"/>
	<path id="cloud3" class="st4" d="M1195.6,165.6c4.8-9.9,7.4-20.9,7.4-32.6c0-41.4-33.6-75-75-75c-9,0-17.6,1.6-25.6,4.5
		c-15.6-16.3-37.5-26.5-61.9-26.5c-47.2,0-85.5,38.3-85.5,85.5c0,20.5,7.2,39.3,19.2,54c-4,9.9-6.2,20.7-6.2,32
		c0,47.2,38.3,85.5,85.5,85.5c19.2,0,36.9-6.3,51.2-17c13.3,15.3,32.9,25,54.8,25c40,0,72.5-32.5,72.5-72.5
		C1232,201.6,1217.3,178.1,1195.6,165.6z"/>
	<path id="cloud2" class="st4" d="M792.3,172c3.2-6.2,5.6-12.9,7.2-20c9.7-44.3-18.3-88.1-62.6-97.8c-28-6.1-55.8,2.8-75,21.5
		c-11.1-12.7-26.3-22-44-25.9c-39-8.5-77.6,12.2-92.9,47.5c-40.5-1.5-77.6,26.2-86.5,67.2c-10.1,46.1,19.1,91.7,65.2,101.8
		c17.1,3.7,34.1,2.1,49.3-3.8c11.8,18,30.4,31.5,53.1,36.5c36,7.9,71.6-8.2,90.4-37.5c7.7,6.1,16.8,10.6,27,12.8
		c35.8,7.8,71.1-14.8,78.9-50.6C806.5,205,802.3,186.5,792.3,172z"/>
	<path class="st4" d="M325,227.5c0-47.2-38.3-85.5-85.5-85.5c-16.8,0-32.4,4.8-45.6,13.2c-14.1-28-43-47.2-76.4-47.2
		C70.3,108,32,146.3,32,193.5c0,18.4,5.8,35.4,15.7,49.3c-3,8.7-4.7,18-4.7,27.7c0,46.9,38.6,85.5,85.5,85.5
		c18.6,0,36-6.1,50.2-16.4c15.5,15.7,37,25.4,60.8,25.4c47.2,0,85.5-38.3,85.5-85.5c0-9.1-1.4-17.8-4-26
		C323.6,245.3,325,236.6,325,227.5z"/>
</g>
</svg>
